<svg width="179" height="179" viewBox="0 0 179 179" fill="none" xmlns="http://www.w3.org/2000/svg">
<path d="M26.4768 138.278L36.993 148.794L50.3434 135.369L39.8272 124.853L26.4768 138.278ZM82.0413 167.44H96.958V145.438H82.0413V167.44ZM29.833 78.3125H7.45801V93.2292H29.833V78.3125ZM111.875 47.0621V11.1875H67.1247V47.0621C53.7743 54.8188 44.7497 69.2133 44.7497 85.7708C44.7497 110.458 64.8126 130.521 89.4997 130.521C114.187 130.521 134.25 110.458 134.25 85.7708C134.25 69.2133 125.225 54.8188 111.875 47.0621ZM149.166 78.3125V93.2292H171.541V78.3125H149.166ZM128.581 135.443L141.932 148.868L152.448 138.352L139.023 125.002L128.581 135.443Z" fill="black"/>
</svg>
