<svg width="179" height="179" viewBox="0 0 179 179" fill="none" xmlns="http://www.w3.org/2000/svg">
<path d="M149.241 114.709C140.068 114.709 131.192 113.217 122.913 110.533C120.303 109.637 117.394 110.309 115.38 112.323L103.671 127.015C82.5637 116.947 62.7992 97.9279 52.2829 76.075L66.8267 63.6942C68.8404 61.6058 69.4371 58.6971 68.6167 56.0867C65.8571 47.8079 64.44 38.9325 64.44 29.7588C64.44 25.7313 61.0838 22.375 57.0563 22.375H31.2504C27.2229 22.375 22.375 24.165 22.375 29.7588C22.375 99.0467 80.0279 156.625 149.241 156.625C154.537 156.625 156.625 151.926 156.625 147.824V122.093C156.625 118.065 153.269 114.709 149.241 114.709Z" fill="black"/>
</svg>
