<svg width="1440" height="1108" viewBox="0 0 1440 1108" fill="none" xmlns="http://www.w3.org/2000/svg">
<path fill-rule="evenodd" clip-rule="evenodd" d="M-423 438.206L-345.375 383.677C-267.75 329.147 -112.5 220.089 42.75 226.905C198 233.721 353.25 356.412 508.5 356.412C663.75 356.412 819 233.721 974.25 186.008C1129.5 138.295 1284.75 165.559 1362.38 179.192L1440 192.824V520H1362.38C1284.75 520 1129.5 520 974.25 520C819 520 663.75 520 508.5 520C353.25 520 198 520 42.75 520C-112.5 520 -267.75 520 -345.375 520H-423V438.206Z" fill="#EEEFF4"/>
<path fill-rule="evenodd" clip-rule="evenodd" d="M1859 828.794L1780.12 883.323C1701.25 937.853 1543.5 1046.91 1385.75 1040.1C1228 1033.28 1070.25 910.588 912.5 910.588C754.75 910.588 597 1033.28 439.25 1080.99C281.5 1128.71 123.75 1101.44 44.875 1087.81L-34 1074.18V747H44.875C123.75 747 281.5 747 439.25 747C597 747 754.75 747 912.5 747C1070.25 747 1228 747 1385.75 747C1543.5 747 1701.25 747 1780.12 747H1859V828.794Z" fill="#EEEFF4"/>
<rect y="519" width="1440" height="264" fill="#EEEFF4"/>
</svg>
