<svg width="541" height="358" viewBox="0 0 541 358" fill="none" xmlns="http://www.w3.org/2000/svg">
<path fill-rule="evenodd" clip-rule="evenodd" d="M112.125 33.915C108.025 29.1036 105.249 23.2072 105.713 16.6002C107.049 -2.43661 133.557 1.75124 138.713 11.3594C143.869 20.9675 143.256 45.3393 136.592 47.0566C133.935 47.7414 128.273 46.0639 122.511 42.5918L126.128 68.1714H104.773L112.125 33.915Z" fill="#B28B67"/>
<path fill-rule="evenodd" clip-rule="evenodd" d="M129.295 12.7528C126.397 14.3734 124.334 17.4101 121.852 21.3934C121.247 21.1558 120.588 21.0253 119.899 21.0253C116.951 21.0253 114.561 23.4149 114.561 26.3626C114.561 27.859 115.177 29.2116 116.169 30.1807C114.934 31.9239 113.549 33.7449 111.963 35.6239C106.043 32.073 101.639 21.7239 107.292 11.7333C112.155 -8.27877 139.714 4.14248 145.016 0.767372C146.175 8.0294 142.437 13.8849 129.295 12.7528Z" fill="#191847"/>
<path fill-rule="evenodd" clip-rule="evenodd" d="M103.913 145.398L147.586 255.904L176.877 349.327H188.444L143.664 145.398L103.913 145.398Z" fill="#997659"/>
<path fill-rule="evenodd" clip-rule="evenodd" d="M95.1188 145.398C94.6537 184.23 87.8716 236.512 86.788 238.933C86.0657 240.546 61.1282 261.068 11.9755 300.497L19.9421 309.02C77.9376 275.214 108.277 256.057 110.961 251.548C114.987 244.785 128.093 182.548 138.615 145.398H95.1188Z" fill="#B28B67"/>
<path fill-rule="evenodd" clip-rule="evenodd" d="M10.9099 297.653C8.23445 298.598 6.39141 299.494 5.38081 300.342C4.15168 301.373 2.52991 303.082 0.515483 305.47C1.71199 306.896 12.4652 319.707 32.7752 343.904C36.9162 342.133 38.2153 340.06 36.6725 337.688C35.1297 335.315 33.867 333.328 32.8846 331.726L25.8563 307.18C25.7211 306.708 25.2285 306.435 24.756 306.57C24.748 306.572 24.7399 306.575 24.7319 306.577L20.982 307.766C18.3803 306.554 16.5567 305.325 15.5114 304.08C14.662 303.068 13.8979 301.327 13.2189 298.859L13.2189 298.859C12.9583 297.911 11.9788 297.354 11.0312 297.615C10.9903 297.626 10.9499 297.639 10.9099 297.653Z" fill="black"/>
<path fill-rule="evenodd" clip-rule="evenodd" d="M172.141 345.014C171.145 347.671 170.648 349.659 170.648 350.978C170.648 352.582 170.915 354.923 171.45 358C173.311 358 190.04 358 221.636 358C222.94 353.69 222.187 351.363 219.377 351.019C216.567 350.675 214.233 350.365 212.375 350.088L189.049 339.692C188.6 339.492 188.074 339.694 187.874 340.142C187.87 340.15 187.867 340.158 187.864 340.165L186.364 343.802C183.763 345.015 181.65 345.622 180.023 345.622C178.702 345.622 176.877 345.088 174.549 344.021L174.549 344.021C173.656 343.612 172.599 344.004 172.19 344.897C172.172 344.935 172.156 344.975 172.141 345.014Z" fill="black"/>
<path fill-rule="evenodd" clip-rule="evenodd" d="M133.276 339.705L188.27 333.738L147.513 145.398H98.2575L133.276 339.705Z" fill="#69A1AC"/>
<path fill-rule="evenodd" clip-rule="evenodd" d="M23.3508 286.747L59.4232 329.433C97.4174 287.948 119.568 260.879 125.875 248.226C132.183 235.573 137.853 201.297 142.885 145.398H87.4323C84.6833 194.575 82.8302 220.308 81.8732 222.597C80.9162 224.885 61.4087 246.269 23.3508 286.747Z" fill="#89C5CC"/>
<path fill-rule="evenodd" clip-rule="evenodd" d="M184.194 134.645L210.345 159.984C217.953 163.208 224.187 166.767 229.047 170.663C230.14 171.972 231.33 174.481 226.188 173.358C221.046 172.236 215.586 171.284 214.62 172.945C213.654 174.606 216.501 177.152 214.715 179.325C213.524 180.775 209.52 176.165 202.702 165.497L175.509 149.572L184.194 134.645ZM56.3204 111.712L76.5344 111.787C61.1388 161.332 52.9663 187.273 52.0169 189.61C49.8809 194.868 54.4011 202.876 56.3341 207.179C50.0383 209.978 50.7091 199.615 42.7672 203.285C35.5182 206.634 30.0039 212.704 21.6288 207.571C20.5991 206.94 19.4707 204.564 22.197 202.707C28.9891 198.081 38.7769 189.985 40.0994 187.32C41.9029 183.686 47.3099 158.483 56.3204 111.712Z" fill="#B28B67"/>
<path fill-rule="evenodd" clip-rule="evenodd" d="M117.916 54.7549L125.898 53.395C138.473 97.5464 203.081 127.642 207.047 144.147C208.502 150.2 204.116 153.259 206.381 155.103L196.006 162.647C194.249 160.611 190.5 164.336 182.67 161.73C174.84 159.125 117.916 107.034 117.916 54.7549Z" fill="#DB2721"/>
<path fill-rule="evenodd" clip-rule="evenodd" d="M131.343 60.6247C130.423 119.078 164.442 133.988 156.865 157.437C150.607 176.801 90.7136 197.617 80.3494 178.636C76.1541 170.953 74.2507 161.66 74.0348 151.558C71.3859 159.319 69.2909 166.001 67.7499 171.603C65.0913 181.267 54.7847 182.804 54.7847 186.527L41.2059 182.804C42.127 177.746 35.7256 175.283 37.442 163.983C45.1323 113.353 65.795 76.653 99.4298 53.8828L99.7855 48.8307C99.9266 46.8719 101.626 45.395 103.586 45.5279L128.715 47.2733C130.677 47.4063 132.156 49.106 132.019 51.0664C132.019 51.0674 132.019 51.0685 132.016 51.0693L131.343 60.6247Z" fill="#FF4133"/>
<path fill-rule="evenodd" clip-rule="evenodd" d="M413.738 61.7494C418.346 56.3407 421.464 49.7122 420.943 42.2848C419.442 20.8843 389.651 25.5921 383.857 36.3932C378.062 47.1944 378.75 74.5923 386.24 76.5228C389.226 77.2926 395.589 75.4068 402.065 71.5036L398 100.259H422L413.738 61.7494Z" fill="#B28B67"/>
<path fill-rule="evenodd" clip-rule="evenodd" d="M389.265 29.2708C389.815 28.9427 390.965 28.2506 391.548 27.9998C391.685 27.9394 392.651 27.2507 392.677 27.2593C393.408 27.506 395.524 28.4164 395.706 29.2032C395.734 29.2628 395.762 29.3187 395.789 29.3676C396.089 29.9128 396.364 30.4716 396.626 31.0372C397.202 32.2787 397.7 33.5763 398.175 34.8636C399.1 37.3709 399.903 39.9365 400.642 42.5079C401.395 45.1256 402.033 47.7739 402.748 50.4024C403.776 54.1847 405.093 57.8742 406.114 61.655C406.766 64.0691 407.129 66.5115 406.958 68.9961C406.956 69.026 406.955 69.0555 406.952 69.0858C406.951 69.0983 406.95 69.1105 406.949 69.123C406.92 69.5049 406.878 69.8878 406.823 70.2718C406.774 70.6002 406.726 70.9298 406.674 71.2593C405.741 69.3989 405.029 67.349 404.273 65.4033C404.199 65.2128 404.128 65.021 404.059 64.8285C403.816 64.4339 403.567 64.0421 403.316 63.6519C401.731 61.1909 400.14 58.7389 398.62 56.2334C395.887 51.727 393.179 47.1254 389.939 42.9872C388.982 41.7652 388.003 40.562 387.058 39.33C386.52 38.629 385.997 37.9161 385.49 37.1907C385.128 36.6719 383.553 34.8636 384.123 33.7772C384.415 33.2214 387.839 30.122 389.265 29.2708Z" fill="#2C2C2C"/>
<path fill-rule="evenodd" clip-rule="evenodd" d="M391.374 28.0905C390.839 28.2701 391.099 27.1577 391.617 26.7662C394.016 24.9526 403.187 24.2944 411.168 25.9512C416.515 27.0611 422.733 29.8235 427.003 33.3748C430.853 36.5763 433.501 41.7084 434.864 46.667C436.295 51.8735 436.512 57.3016 435.714 62.6407C435.539 63.8134 435.163 64.931 434.953 66.0789C434.717 67.3716 434.596 68.6162 434.175 69.8738C433.917 70.6438 433.479 71.3986 433.259 72.1729C433.008 73.0565 433.161 73.874 433.344 74.7727C433.642 76.2375 434.012 77.6993 434.538 79.0983C435.328 81.199 436.286 83.1666 436.887 85.3465C437.686 88.2472 441.03 97.6864 438.586 100.259H392.068C393.239 97.0641 396.755 93.3036 397.467 89.8831C397.886 87.8682 398.086 83.4679 398.129 83.3079C399.178 76.0816 401.225 72.6308 402.507 71.3784C403.789 70.126 405.496 69.7409 405.584 68.6546C405.948 64.1616 404.161 59.8567 402.851 55.6635C401.29 50.6658 400.145 45.5442 398.536 40.5635C397.823 38.358 394.15 27.1577 391.374 28.0905Z" fill="#8991DC"/>
<path fill-rule="evenodd" clip-rule="evenodd" d="M407.684 33.2593C409.438 38.8253 409.815 41.7963 409.438 49.4014H410.299C411.906 42.2245 410.476 35.4682 408.766 33.2593H407.684ZM431.218 47.6236C427.949 55.5557 426.458 60.2397 417.33 66.6585L418.035 67.152C427.097 62.0162 429.736 55.8899 431.906 47.9541L431.218 47.6236ZM417.787 39.5516C416.302 50.8104 415.868 57.2414 408.134 69.5569L408.956 69.8085C416.917 59.0855 418.179 50.3334 418.555 39.6134L417.787 39.5516ZM426.331 72.9956L425.626 72.1397C416.019 75.149 417.089 81.3617 404.989 87.6534L406 88.2661C416.596 83.8934 419.072 74.5146 426.331 72.9956Z" fill="black" fill-opacity="0.2"/>
<path fill-rule="evenodd" clip-rule="evenodd" d="M465.377 225.259H388.123L378 349.259H493L465.377 225.259Z" fill="#C5CFD6"/>
<path fill-rule="evenodd" clip-rule="evenodd" d="M465.377 225.259H441.617L427.396 349.259H493L465.377 225.259Z" fill="black" fill-opacity="0.1"/>
<path fill-rule="evenodd" clip-rule="evenodd" d="M300.047 204.015C291.81 199.069 277.991 205.424 278 212.498C278.028 233.662 297.343 333.41 298.352 339.716C299.36 346.022 310.163 347.687 310.792 339.737C311.793 327.086 313.653 283.292 311.792 263.022C311.024 254.655 310.197 246.686 309.383 239.577C319.518 257.88 335.193 284.085 356.407 318.193L367.923 312.931C358.88 283.135 351.464 262.1 345.677 249.826C335.767 228.809 326.475 210.811 322.564 204.471C316.412 194.499 305.705 197.978 300.047 204.015Z" fill="#B28B67"/>
<path fill-rule="evenodd" clip-rule="evenodd" d="M367.1 296.385L327.573 202.747C318.103 187.514 291.554 205.846 294.783 214.681C302.114 234.739 339.4 299.674 341.585 305.649L367.1 296.385Z" fill="#1F28CF"/>
<path fill-rule="evenodd" clip-rule="evenodd" d="M369.295 307.027C371.758 309.054 373.359 310.709 374.101 311.993C375.002 313.555 376.058 315.984 377.267 319.28C375.456 320.326 359.174 329.727 328.422 347.481C324.73 344.018 324.155 341.329 326.696 339.416C329.238 337.502 331.335 335.889 332.988 334.575L349.848 311.346C350.172 310.899 350.798 310.8 351.244 311.124C351.252 311.13 351.26 311.135 351.267 311.141L354.77 313.839C357.984 313.558 360.382 312.961 361.965 312.047C363.251 311.305 364.727 309.76 366.393 307.413L366.393 307.413C367.033 306.512 368.281 306.3 369.182 306.94C369.221 306.967 369.259 306.996 369.295 307.027Z" fill="#E4E4E4"/>
<path fill-rule="evenodd" clip-rule="evenodd" d="M313.322 334.661C314.441 337.648 315 339.882 315 341.365C315 343.168 314.7 345.8 314.099 349.259C312.007 349.259 293.206 349.259 257.697 349.259C256.231 344.414 257.077 341.798 260.235 341.412C263.393 341.025 266.016 340.676 268.105 340.365L294.32 328.678C294.824 328.453 295.416 328.68 295.641 329.184C295.644 329.193 295.648 329.202 295.652 329.21L297.337 333.298C300.26 334.662 302.636 335.344 304.463 335.344C305.948 335.344 307.999 334.744 310.616 333.545L310.616 333.545C311.62 333.084 312.807 333.525 313.267 334.529C313.287 334.573 313.305 334.617 313.322 334.661Z" fill="#E4E4E4"/>
<path fill-rule="evenodd" clip-rule="evenodd" d="M275.23 219.692C275.23 246.259 287.846 308.23 287.854 314.079L315 314.1C311.027 258.805 309.618 230.859 310.773 230.263C312.507 229.37 381.824 237.184 402.614 237.184C432.592 237.184 444.994 218.28 446 183.259H386.614C374.522 184.553 311.451 197.275 288.028 201.648C278 203.52 275.23 212.374 275.23 219.692Z" fill="#2B44FF"/>
<path fill-rule="evenodd" clip-rule="evenodd" d="M336.507 170.72L308.179 198.355C299.937 201.87 293.183 205.753 287.919 210.001C286.735 211.429 285.446 214.165 291.016 212.941C296.586 211.717 302.5 210.679 303.547 212.491C304.594 214.302 301.509 217.078 303.444 219.449C304.734 221.029 309.072 216.002 316.458 204.367L345.916 187L336.507 170.72ZM475.03 145.709L453.133 145.791C469.811 199.825 478.664 228.116 479.692 230.665C482.006 236.399 477.109 245.133 475.015 249.826C481.835 252.878 481.109 241.576 489.712 245.579C497.565 249.232 503.538 255.852 512.611 250.254C513.726 249.565 514.949 246.974 511.995 244.949C504.638 239.904 494.035 231.074 492.602 228.168C490.648 224.204 484.791 196.718 475.03 145.709Z" fill="#B28B67"/>
<path fill-rule="evenodd" clip-rule="evenodd" d="M408.305 83.5913L399.658 82.1081C386.036 130.26 316.047 163.082 311.751 181.083C310.175 187.684 314.926 191.021 312.472 193.031L323.712 201.259C325.615 199.039 329.677 203.101 338.159 200.259C346.641 197.418 408.305 140.607 408.305 83.5913Z" fill="#DB2721"/>
<path fill-rule="evenodd" clip-rule="evenodd" d="M393.759 89.993C394.756 153.742 357.904 170.004 366.113 195.578C372.891 216.696 437.773 239.398 449 218.697C453.545 210.318 455.607 200.183 455.841 189.165C458.71 197.63 460.979 204.917 462.649 211.027C465.529 221.567 476.694 223.242 476.694 227.303L491.403 223.242C490.406 217.726 497.34 215.04 495.481 202.716C487.15 147.499 464.767 107.473 428.331 82.6402L427.954 77.2496C427.8 75.0458 425.888 73.3842 423.684 73.5383L396.75 75.4217C394.546 75.5758 392.885 77.4873 393.039 79.691L393.759 89.993Z" fill="#FF4133"/>
</svg>
