<svg width="669" height="594" viewBox="0 0 669 594" fill="none" xmlns="http://www.w3.org/2000/svg">
<path fill-rule="evenodd" clip-rule="evenodd" d="M665.255 298.672C666.893 363.272 581.087 392.009 531.907 433.927C496.848 463.81 458.621 485.167 418.96 508.599C374.513 534.86 335.733 570.398 284.975 579.82C221.527 591.597 149.892 603.548 95.6323 568.616C40.4171 533.069 3.08507 464.49 3.83844 398.826C4.56556 335.45 75.6573 297.682 99.4151 238.922C119.417 189.452 97.6579 127.172 130.636 85.2219C165.15 41.3191 222.797 22.7186 277.644 12.208C333.892 1.42897 397.096 -5.7263 445.501 24.8829C492.789 54.7853 490.16 125.105 525.181 168.737C565.869 219.431 663.607 233.69 665.255 298.672Z" fill="#F95A2C"/>
</svg>
