<svg width="644" height="588" viewBox="0 0 644 588" fill="none" xmlns="http://www.w3.org/2000/svg">
<path d="M445.371 17.3507C412.204 36.3203 388.811 68.2251 360.463 93.8371C325.205 125.568 282.29 147.57 235.945 157.677C197.945 165.9 158.243 166.022 121.626 178.957C50.1858 204.022 1.25695 278.411 0.0257503 354.046C-1.20545 429.681 41.8257 503.006 105.073 544.471C126.613 558.601 150.194 569.34 174.993 576.315C221.505 589.403 270.829 588.825 318.891 583.824C401.914 575.175 488.949 528.025 541.283 461.555C564.611 431.847 584.326 399.472 600.015 365.111C625.934 308.612 640.656 247.625 643.366 185.523C645.57 132.324 643.366 73.3475 601.155 34.5723C558.945 -4.20289 494.847 -10.9669 445.371 17.3507Z" fill="#FFB800"/>
</svg>
